<?xml version="1.0" encoding="UTF-8"?><svg id="Layer_1" xmlns="http://www.w3.org/2000/svg" viewBox="0 0 450 300"><defs><style>.cls-1{fill:#e3f1fd;}.cls-2{fill:#287fca;}</style></defs><rect class="cls-1" width="449.84" height="300"/><path class="cls-2" d="m246.48,130.05h-43.12c-1.24,0-2.44.5-3.31,1.38-.88.88-1.37,2.07-1.38,3.31v30.53c0,1.24.5,2.44,1.38,3.31.88.88,2.07,1.37,3.31,1.38h43.12c1.24,0,2.44-.5,3.31-1.38.88-.88,1.37-2.07,1.38-3.31v-30.53c0-1.24-.5-2.44-1.38-3.31-.88-.88-2.07-1.37-3.31-1.38Zm-43.12,2.06h43.12c.7,0,1.37.28,1.86.77.49.49.77,1.16.77,1.86v26.36l-11.5-12.66c-.2-.22-.47-.34-.76-.34s-.57.12-.76.34l-5.96,6.56-10.64-11.7c-.2-.21-.47-.34-.76-.34s-.57.12-.76.34l-17.24,18.97v-27.52c0-.7.28-1.37.77-1.86.49-.49,1.16-.77,1.86-.77h0Zm-2.63,33.21l18-19.81,10.01,11.01-10.33,11.37h-15.04c-.69,0-1.35-.27-1.84-.75-.49-.48-.77-1.14-.79-1.82h0Zm45.75,2.58h-25.3l15.66-17.24,12.26,13.5v1.11c0,.7-.28,1.37-.77,1.86-.49.49-1.16.77-1.86.77h0Zm-14.69-21.79c1.46,0,2.86-.58,3.89-1.61,1.03-1.03,1.61-2.43,1.61-3.89s-.58-2.86-1.61-3.89c-1.03-1.03-2.43-1.61-3.89-1.61s-2.86.58-3.89,1.61c-1.03,1.03-1.61,2.43-1.61,3.89,0,1.46.58,2.85,1.61,3.89,1.03,1.03,2.43,1.61,3.89,1.61Zm0-8.93c.91,0,1.79.36,2.43,1.01s1.01,1.52,1.01,2.43-.36,1.79-1.01,2.43c-.64.65-1.52,1.01-2.43,1.01s-1.79-.36-2.43-1.01c-.64-.64-1.01-1.52-1.01-2.43,0-.91.36-1.79,1.01-2.43.64-.64,1.52-1.01,2.43-1.01h0Z"/></svg>